<?xml version="1.0" encoding="iso-8859-1"?>
<!-- Generator: Adobe Illustrator 19.0.0, SVG Export Plug-In . SVG Version: 6.00 Build 0)  -->
<svg version="1.1" id="Capa_1" xmlns="http://www.w3.org/2000/svg" xmlns:xlink="http://www.w3.org/1999/xlink" x="0px" y="0px"
	 viewBox="0 0 512 512" style="enable-background:new 0 0 512 512;" xml:space="preserve">
<path style="fill:#FF728B;" d="M512,512H40c-22.056,0-40-17.944-40-40s17.944-40,40-40h432c5.514,0,10-4.486,10-10s-4.486-10-10-10
	H281c-22.056,0-40-17.944-40-40v-35h30v35c0,5.514,4.486,10,10,10h191c22.056,0,40,17.944,40,40s-17.944,40-40,40H40
	c-5.514,0-10,4.486-10,10s4.486,10,10,10h472V512z"/>
<g>
	<rect x="256" y="482" style="fill:#EA348B;" width="256" height="30"/>
	<path style="fill:#EA348B;" d="M472,382H281c-5.514,0-10-4.486-10-10v-35h-15v66.192c6.854,5.504,15.546,8.808,25,8.808h191
		c5.514,0,10,4.486,10,10s-4.486,10-10,10H256v30h216c22.056,0,40-17.944,40-40S494.056,382,472,382z"/>
</g>
<path style="fill:#466288;" d="M301,352h-90v-90h90V352z"/>
<g>
	<rect x="256" y="262" style="fill:#243145;" width="45" height="90"/>
	<path style="fill:#243145;" d="M281,292h-50c-30.327,0-55-24.673-55-55v-35h160v35C336,267.327,311.327,292,281,292z"/>
</g>
<path style="fill:#121924;" d="M256,292h25c30.327,0,55-24.673,55-55v-35h-80V292z"/>
<path style="fill:#DAE0E7;" d="M422,180H90c-19.299,0-35-15.701-35-35V0h402v145C457,164.299,441.299,180,422,180z"/>
<path style="fill:#BEC8D6;" d="M256,0v180h166c19.299,0,35-15.701,35-35V0H256z"/>
<path style="fill:#466288;" d="M346,232H166c-19.299,0-35-15.701-35-35V82h250v115C381,216.299,365.299,232,346,232z"/>
<path style="fill:#243145;" d="M256,82v150h90c19.299,0,35-15.701,35-35V82H256z"/>
<circle style="fill:#3897FF;" cx="306" cy="157" r="15"/>
<g>
	<rect x="241" style="fill:#A3B1C4;" width="30" height="52"/>
	<rect x="181" style="fill:#A3B1C4;" width="30" height="52"/>
	<rect x="121" style="fill:#A3B1C4;" width="30" height="52"/>
</g>
<g>
	<rect x="301" style="fill:#8799B3;" width="30" height="52"/>
	<rect x="361" style="fill:#8799B3;" width="30" height="52"/>
	<rect x="256" style="fill:#8799B3;" width="15" height="52"/>
</g>
<g>
</g>
<g>
</g>
<g>
</g>
<g>
</g>
<g>
</g>
<g>
</g>
<g>
</g>
<g>
</g>
<g>
</g>
<g>
</g>
<g>
</g>
<g>
</g>
<g>
</g>
<g>
</g>
<g>
</g>
</svg>
