<svg height="512" viewBox="0 0 512 512" width="512" xmlns="http://www.w3.org/2000/svg"><g id="Layer_22" data-name="Layer 22"><rect fill="#b5b5b5" height="480" rx="24" width="480" x="16" y="19.5"/><path d="m472 19.5h-432a23.718 23.718 0 0 0 -6.878 1.122 23.718 23.718 0 0 0 -1.122 6.878v432a24 24 0 0 0 24 24h432a23.718 23.718 0 0 0 6.878-1.122 23.718 23.718 0 0 0 1.122-6.878v-432a24 24 0 0 0 -24-24z" fill="#ccc"/><circle cx="256" cy="259.5" fill="#686868" r="208"/><circle cx="256" cy="259.5" fill="#686868" r="208"/><path d="m256 51.5a207.168 207.168 0 0 0 -85 18.17 207.908 207.908 0 0 0 -107 181.83c0 114.875 93.125 208 208 208a207.168 207.168 0 0 0 85-18.17 207.911 207.911 0 0 0 107-181.83c0-114.875-93.125-208-208-208z" fill="#939393"/><circle cx="256" cy="259.5" fill="#d7f1f9" r="176"/><path d="m256 83.5a175.335 175.335 0 0 0 -70.42 14.7 176 176 0 0 0 156.84 314.6 175.989 175.989 0 0 0 -86.42-329.3z" fill="#e7f7fb"/><circle cx="64" cy="67.5" fill="#686868" r="16"/><circle cx="448" cy="67.5" fill="#686868" r="16"/><circle cx="64" cy="451.5" fill="#686868" r="16"/><circle cx="448" cy="451.5" fill="#686868" r="16"/><path d="m448 435.5a15.889 15.889 0 0 0 -6.562 1.438 15.945 15.945 0 0 0 21.124 21.124 15.945 15.945 0 0 0 -14.562-22.562z" fill="#868686"/><path d="m64 435.5a15.889 15.889 0 0 0 -6.562 1.438 15.945 15.945 0 0 0 21.124 21.124 15.945 15.945 0 0 0 -14.562-22.562z" fill="#868686"/><path d="m64 51.5a15.889 15.889 0 0 0 -6.562 1.438 15.945 15.945 0 0 0 21.124 21.124 15.945 15.945 0 0 0 -14.562-22.562z" fill="#868686"/><path d="m448 51.5a15.889 15.889 0 0 0 -6.562 1.438 15.945 15.945 0 0 0 21.124 21.124 15.945 15.945 0 0 0 -14.562-22.562z" fill="#868686"/><path d="m216 259.5a39.651 39.651 0 0 1 9.693-25.833v-.27l-71.574-23.857a32 32 0 0 0 -42.119 30.36v39.2a32 32 0 0 0 42.119 30.358l71.573-23.858v-.272a39.644 39.644 0 0 1 -9.692-25.828z" fill="#66bdd4"/><path d="m216 259.5a39.651 39.651 0 0 1 9.693-25.833v-.27l-71.574-23.857a32 32 0 0 0 -42.119 30.36v39.2a32 32 0 0 0 42.119 30.358l71.573-23.858v-.272a39.644 39.644 0 0 1 -9.692-25.828z" fill="#66bdd4"/><path d="m216 259.5a39.651 39.651 0 0 1 9.693-25.833v-.27l-71.574-23.857a32 32 0 0 0 -42.119 30.36v39.2a32 32 0 0 0 42.119 30.358l71.573-23.858v-.272a39.644 39.644 0 0 1 -9.692-25.828z" fill="#6697dd"/><path d="m305.96 361.38-23.86-71.575h-.267a39.27 39.27 0 0 1 -51.671 0h-.262l-23.86 71.575a32 32 0 0 0 30.36 42.12h39.2a32 32 0 0 0 30.36-42.12z" fill="#6697dd"/><path d="m357.881 209.54-71.575 23.86v.268a39.269 39.269 0 0 1 0 51.668v.268l71.576 23.858a32 32 0 0 0 42.118-30.362v-39.2a32 32 0 0 0 -42.119-30.36z" fill="#6697dd"/><path d="m275.6 115.5h-39.2a32 32 0 0 0 -30.357 42.119l23.857 71.574h.269a39.269 39.269 0 0 1 51.666 0h.269l23.858-71.575a32 32 0 0 0 -30.362-42.118z" fill="#6697dd"/><g fill="#ccc"><circle cx="256" cy="259.5" r="40"/><path d="m225.692 285.331v.272l-10.49 3.5-89.119 89.119q5.346 5.847 11.2 11.2l89.117-89.122 3.5-10.5h.267a39.952 39.952 0 0 1 -4.475-4.469z"/><path d="m296.8 289.1-10.493-3.5v-.268a39.916 39.916 0 0 1 -4.471 4.472h.268l3.5 10.494 89.118 89.118q5.847-5.346 11.2-11.2z"/><path d="m374.718 129.583-89.118 89.117-3.5 10.493h-.269a39.85 39.85 0 0 1 4.473 4.472v-.265l10.493-3.5 89.118-89.118q-5.344-5.847-11.197-11.199z"/><path d="m225.693 233.667a40.117 40.117 0 0 1 4.478-4.478h-.271l-3.5-10.489-89.119-89.119q-5.847 5.346-11.2 11.2l89.119 89.119 10.492 3.5z"/></g><path d="m256 219.5a39.65 39.65 0 0 0 -23.9 8.1 39.827 39.827 0 0 0 55.8 55.8 39.827 39.827 0 0 0 -31.9-63.9z" fill="#e0e0e0"/><path d="m275.6 115.5h-39.2a31.649 31.649 0 0 0 -20.4 7.375v6.268a82.324 82.324 0 0 0 72.229 81.671l17.731-53.195a32 32 0 0 0 -30.36-42.119z" fill="#85ace4"/><path d="m357.881 209.54-45.881 15.293v10.953a55.714 55.714 0 0 0 55.714 55.714h29.769a31.833 31.833 0 0 0 2.517-12.4v-39.2a32 32 0 0 0 -42.119-30.36z" fill="#85ace4"/><path d="m282.1 289.805h-.267a39.27 39.27 0 0 1 -51.671 0h-.262l-5.9 17.695v24.214a55.786 55.786 0 0 0 55.786 55.786h23.506a31.713 31.713 0 0 0 2.668-26.12z" fill="#85ace4"/><path d="m128 212.208v11.649a59.643 59.643 0 0 0 59.643 59.643h36.73a38.939 38.939 0 0 1 1.32-49.833v-.27l-71.574-23.857a31.712 31.712 0 0 0 -26.119 2.668z" fill="#85ace4"/></g></svg>