<svg width="768" height="1621" viewBox="0 0 768 1621" fill="none" xmlns="http://www.w3.org/2000/svg">
<path d="M30.3655 1.75706C16.3655 6.42373 3.69879 20.5571 0.76546 34.8237C-4.96787 62.2904 22.4988 89.7571 49.9655 84.0237C70.6321 79.7571 86.6321 58.6904 84.6321 38.8237C83.1655 24.8237 72.6321 10.4237 59.2988 3.89039C51.1655 0.0237274 38.6321 -0.909606 30.3655 1.75706Z" fill="black"/>
<path d="M201.032 1.7569C180.899 8.42357 167.299 30.5569 171.432 50.0236C174.765 65.8902 189.565 80.6902 205.299 84.0236C231.165 89.4902 257.965 65.0902 255.299 38.8236C253.832 24.8236 243.299 10.4236 229.965 3.89024C221.832 0.0235714 209.299 -0.909762 201.032 1.7569Z" fill="black"/>
<path d="M371.699 1.75706C357.699 6.42373 345.032 20.5571 342.099 34.8237C336.366 62.2904 363.832 89.7571 391.299 84.0237C411.966 79.7571 427.966 58.6904 425.966 38.8237C424.499 24.8237 413.966 10.4237 400.632 3.89039C392.499 0.0237274 379.966 -0.909606 371.699 1.75706Z" fill="black"/>
<path d="M542.365 1.75706C528.365 6.42373 515.699 20.5571 512.765 34.8237C507.032 62.2904 534.499 89.7571 561.965 84.0237C582.632 79.7571 598.632 58.6904 596.632 38.8237C595.165 24.8237 584.632 10.4237 571.299 3.89039C563.165 0.0237274 550.632 -0.909606 542.365 1.75706Z" fill="black"/>
<path d="M713.032 1.75706C699.032 6.42373 686.366 20.5571 683.432 34.8237C677.699 62.2904 705.166 89.7571 732.632 84.0237C753.299 79.7571 769.299 58.6904 767.299 38.8237C765.832 24.8237 755.299 10.4237 741.966 3.89039C733.832 0.0237274 721.299 -0.909606 713.032 1.75706Z" fill="black"/>
<path d="M30.3655 172.424C16.3655 177.09 3.69879 191.224 0.76546 205.49C-4.96787 232.957 22.4988 260.424 49.9655 254.69C70.6321 250.424 86.6321 229.357 84.6321 209.49C83.1655 195.49 72.6321 181.09 59.2988 174.557C51.1655 170.69 38.6321 169.757 30.3655 172.424Z" fill="black"/>
<path d="M201.032 172.424C180.899 179.09 167.299 201.224 171.432 220.69C174.765 236.557 189.565 251.357 205.299 254.69C231.165 260.157 257.965 235.757 255.299 209.49C253.832 195.49 243.299 181.09 229.965 174.557C221.832 170.69 209.299 169.757 201.032 172.424Z" fill="black"/>
<path d="M371.699 172.424C357.699 177.09 345.032 191.224 342.099 205.49C336.366 232.957 363.832 260.424 391.299 254.69C411.966 250.424 427.966 229.357 425.966 209.49C424.499 195.49 413.966 181.09 400.632 174.557C392.499 170.69 379.966 169.757 371.699 172.424Z" fill="black"/>
<path d="M542.365 172.424C528.365 177.09 515.699 191.224 512.765 205.49C507.032 232.957 534.499 260.424 561.965 254.69C582.632 250.424 598.632 229.357 596.632 209.49C595.165 195.49 584.632 181.09 571.299 174.557C563.165 170.69 550.632 169.757 542.365 172.424Z" fill="black"/>
<path d="M713.032 172.424C699.032 177.09 686.366 191.224 683.432 205.49C677.699 232.957 705.166 260.424 732.632 254.69C753.299 250.424 769.299 229.357 767.299 209.49C765.832 195.49 755.299 181.09 741.966 174.557C733.832 170.69 721.299 169.757 713.032 172.424Z" fill="black"/>
<path d="M30.3655 343.09C16.3655 347.757 3.69879 361.89 0.76546 376.157C-4.96787 403.624 22.4988 431.09 49.9655 425.357C70.6321 421.09 86.6321 400.024 84.6321 380.157C83.1655 366.157 72.6321 351.757 59.2988 345.224C51.1655 341.357 38.6321 340.424 30.3655 343.09Z" fill="black"/>
<path d="M201.032 343.09C187.032 347.757 174.365 361.89 171.432 376.157C165.699 403.624 193.165 431.09 220.632 425.357C241.299 421.09 257.299 400.024 255.299 380.157C253.832 366.157 243.299 351.757 229.965 345.224C221.832 341.357 209.299 340.424 201.032 343.09Z" fill="black"/>
<path d="M371.699 343.09C357.699 347.757 345.032 361.89 342.099 376.157C336.366 403.624 363.832 431.09 391.299 425.357C411.966 421.09 427.966 400.024 425.966 380.157C424.499 366.157 413.966 351.757 400.632 345.224C392.499 341.357 379.966 340.424 371.699 343.09Z" fill="black"/>
<path d="M542.365 343.09C528.365 347.757 515.699 361.89 512.765 376.157C507.032 403.624 534.499 431.09 561.965 425.357C582.632 421.09 598.632 400.024 596.632 380.157C595.165 366.157 584.632 351.757 571.299 345.224C563.165 341.357 550.632 340.424 542.365 343.09Z" fill="black"/>
<path d="M713.032 343.09C699.032 347.757 686.366 361.89 683.432 376.157C677.699 403.624 705.166 431.09 732.632 425.357C753.299 421.09 769.299 400.024 767.299 380.157C765.832 366.157 755.299 351.757 741.966 345.224C733.832 341.357 721.299 340.424 713.032 343.09Z" fill="black"/>
<path d="M30.3655 513.757C16.3655 518.424 3.69879 532.557 0.76546 546.824C-4.96787 574.29 22.4988 601.757 49.9655 596.024C70.6321 591.757 86.6321 570.69 84.6321 550.824C83.1655 536.824 72.6321 522.424 59.2988 515.89C51.1655 512.024 38.6321 511.09 30.3655 513.757Z" fill="black"/>
<path d="M201.032 513.757C187.032 518.424 174.365 532.557 171.432 546.824C165.699 574.29 193.165 601.757 220.632 596.024C241.299 591.757 257.299 570.69 255.299 550.824C253.832 536.824 243.299 522.424 229.965 515.89C221.832 512.024 209.299 511.09 201.032 513.757Z" fill="black"/>
<path d="M371.699 513.757C357.699 518.424 345.032 532.557 342.099 546.824C336.366 574.29 363.832 601.757 391.299 596.024C411.966 591.757 427.966 570.69 425.966 550.824C424.499 536.824 413.966 522.424 400.632 515.89C392.499 512.024 379.966 511.09 371.699 513.757Z" fill="black"/>
<path d="M542.365 513.757C528.365 518.424 515.699 532.557 512.765 546.824C507.032 574.29 534.499 601.757 561.965 596.024C582.632 591.757 598.632 570.69 596.632 550.824C595.165 536.824 584.632 522.424 571.299 515.89C563.165 512.024 550.632 511.09 542.365 513.757Z" fill="black"/>
<path d="M713.032 513.757C699.032 518.424 686.366 532.557 683.432 546.824C677.699 574.29 705.166 601.757 732.632 596.024C753.299 591.757 769.299 570.69 767.299 550.824C765.832 536.824 755.299 522.424 741.966 515.89C733.832 512.024 721.299 511.09 713.032 513.757Z" fill="black"/>
<path d="M30.3655 684.424C16.3655 689.09 3.69879 703.224 0.76546 717.49C-4.96787 744.957 22.4988 772.424 49.9655 766.69C70.6321 762.424 86.6321 741.357 84.6321 721.49C83.1655 707.49 72.6321 693.09 59.2988 686.557C51.1655 682.69 38.6321 681.757 30.3655 684.424Z" fill="black"/>
<path d="M201.032 684.424C187.032 689.09 174.365 703.224 171.432 717.49C165.699 744.957 193.165 772.424 220.632 766.69C241.299 762.424 257.299 741.357 255.299 721.49C253.832 707.49 243.299 693.09 229.965 686.557C221.832 682.69 209.299 681.757 201.032 684.424Z" fill="black"/>
<path d="M371.699 684.424C357.699 689.09 345.032 703.224 342.099 717.49C336.366 744.957 363.832 772.424 391.299 766.69C411.966 762.424 427.966 741.357 425.966 721.49C424.499 707.49 413.966 693.09 400.632 686.557C392.499 682.69 379.966 681.757 371.699 684.424Z" fill="black"/>
<path d="M542.365 684.424C528.365 689.09 515.699 703.224 512.765 717.49C507.032 744.957 534.499 772.424 561.965 766.69C582.632 762.424 598.632 741.357 596.632 721.49C595.165 707.49 584.632 693.09 571.299 686.557C563.165 682.69 550.632 681.757 542.365 684.424Z" fill="black"/>
<path d="M713.032 684.424C699.032 689.09 686.366 703.224 683.432 717.49C677.699 744.957 705.166 772.424 732.632 766.69C753.299 762.424 769.299 741.357 767.299 721.49C765.832 707.49 755.299 693.09 741.966 686.557C733.832 682.69 721.299 681.757 713.032 684.424Z" fill="black"/>
<path d="M30.3655 855.09C16.3655 859.757 3.69879 873.89 0.76546 888.157C-4.96787 915.624 22.4988 943.09 49.9655 937.357C70.6321 933.09 86.6321 912.024 84.6321 892.157C83.1655 878.157 72.6321 863.757 59.2988 857.224C51.1655 853.357 38.6321 852.424 30.3655 855.09Z" fill="black"/>
<path d="M201.032 855.09C187.032 859.757 174.365 873.89 171.432 888.157C165.699 915.624 193.165 943.09 220.632 937.357C241.299 933.09 257.299 912.024 255.299 892.157C253.832 878.157 243.299 863.757 229.965 857.224C221.832 853.357 209.299 852.424 201.032 855.09Z" fill="black"/>
<path d="M371.699 855.09C357.699 859.757 345.032 873.89 342.099 888.157C336.366 915.624 363.832 943.09 391.299 937.357C411.966 933.09 427.966 912.024 425.966 892.157C424.499 878.157 413.966 863.757 400.632 857.224C392.499 853.357 379.966 852.424 371.699 855.09Z" fill="black"/>
<path d="M542.365 855.09C528.365 859.757 515.699 873.89 512.765 888.157C507.032 915.624 534.499 943.09 561.965 937.357C582.632 933.09 598.632 912.024 596.632 892.157C595.165 878.157 584.632 863.757 571.299 857.224C563.165 853.357 550.632 852.424 542.365 855.09Z" fill="black"/>
<path d="M713.032 855.09C699.032 859.757 686.366 873.89 683.432 888.157C677.699 915.624 705.166 943.09 732.632 937.357C753.299 933.09 769.299 912.024 767.299 892.157C765.832 878.157 755.299 863.757 741.966 857.224C733.832 853.357 721.299 852.424 713.032 855.09Z" fill="black"/>
<path d="M30.3655 1025.76C16.3655 1030.42 3.69879 1044.56 0.76546 1058.82C-4.96787 1086.29 22.4988 1113.76 49.9655 1108.02C70.6321 1103.76 86.6321 1082.69 84.6321 1062.82C83.1655 1048.82 72.6321 1034.42 59.2988 1027.89C51.1655 1024.02 38.6321 1023.09 30.3655 1025.76Z" fill="black"/>
<path d="M201.032 1025.76C187.032 1030.42 174.365 1044.56 171.432 1058.82C165.699 1086.29 193.165 1113.76 220.632 1108.02C241.299 1103.76 257.299 1082.69 255.299 1062.82C253.832 1048.82 243.299 1034.42 229.965 1027.89C221.832 1024.02 209.299 1023.09 201.032 1025.76Z" fill="black"/>
<path d="M371.699 1025.76C357.699 1030.42 345.032 1044.56 342.099 1058.82C338.766 1074.42 346.366 1091.36 361.032 1101.36C375.299 1111.22 391.566 1111.36 405.966 1101.76C429.566 1086.02 432.766 1056.69 413.032 1037.09C401.699 1025.62 385.432 1021.22 371.699 1025.76Z" fill="black"/>
<path d="M542.365 1025.76C528.365 1030.42 515.699 1044.56 512.765 1058.82C509.432 1074.42 517.032 1091.36 531.699 1101.36C545.965 1111.22 562.232 1111.36 576.632 1101.76C600.232 1086.02 603.432 1056.69 583.699 1037.09C572.365 1025.62 556.099 1021.22 542.365 1025.76Z" fill="black"/>
<path d="M713.032 1025.76C692.899 1032.42 679.299 1054.56 683.432 1074.02C686.765 1089.89 701.565 1104.69 717.432 1108.02C743.165 1113.49 769.965 1089.09 767.299 1062.82C765.832 1048.82 755.299 1034.42 741.965 1027.89C733.832 1024.02 721.299 1023.09 713.032 1025.76Z" fill="black"/>
<path d="M30.3655 1196.42C16.3655 1201.09 3.69879 1215.22 0.76546 1229.49C-4.96787 1256.96 22.4988 1284.42 49.9655 1278.69C70.6321 1274.42 86.6321 1253.36 84.6321 1233.49C83.1655 1219.49 72.6321 1205.09 59.2988 1198.56C51.1655 1194.69 38.6321 1193.76 30.3655 1196.42Z" fill="black"/>
<path d="M201.032 1196.42C187.032 1201.09 174.365 1215.22 171.432 1229.49C165.699 1256.96 193.165 1284.42 220.632 1278.69C241.299 1274.42 257.299 1253.36 255.299 1233.49C253.832 1219.49 243.299 1205.09 229.965 1198.56C221.832 1194.69 209.299 1193.76 201.032 1196.42Z" fill="black"/>
<path d="M371.699 1196.42C357.699 1201.09 345.032 1215.22 342.099 1229.49C338.766 1245.09 346.366 1262.02 361.032 1272.02C375.299 1281.89 391.566 1282.02 405.966 1272.42C429.566 1256.69 432.766 1227.36 413.032 1207.76C401.699 1196.29 385.432 1191.89 371.699 1196.42Z" fill="black"/>
<path d="M542.365 1196.42C528.365 1201.09 515.699 1215.22 512.765 1229.49C509.432 1245.09 517.032 1262.02 531.699 1272.02C545.965 1281.89 562.232 1282.02 576.632 1272.42C600.232 1256.69 603.432 1227.36 583.699 1207.76C572.365 1196.29 556.099 1191.89 542.365 1196.42Z" fill="black"/>
<path d="M713.032 1196.42C692.899 1203.09 679.299 1225.22 683.432 1244.69C686.765 1260.56 701.565 1275.36 717.432 1278.69C743.165 1284.16 769.965 1259.76 767.299 1233.49C765.832 1219.49 755.299 1205.09 741.965 1198.56C733.832 1194.69 721.299 1193.76 713.032 1196.42Z" fill="black"/>
<path d="M30.3655 1367.09C16.3655 1371.76 3.69879 1385.89 0.76546 1400.16C-4.96787 1427.62 22.4988 1455.09 49.9655 1449.36C70.6321 1445.09 86.6321 1424.02 84.6321 1404.16C83.1655 1390.16 72.6321 1375.76 59.2988 1369.22C51.1655 1365.36 38.6321 1364.42 30.3655 1367.09Z" fill="black"/>
<path d="M201.032 1367.09C187.032 1371.76 174.365 1385.89 171.432 1400.16C165.699 1427.62 193.165 1455.09 220.632 1449.36C241.299 1445.09 257.299 1424.02 255.299 1404.16C253.832 1390.16 243.299 1375.76 229.965 1369.22C221.832 1365.36 209.299 1364.42 201.032 1367.09Z" fill="black"/>
<path d="M371.699 1367.09C357.699 1371.76 345.032 1385.89 342.099 1400.16C338.766 1415.76 346.366 1432.69 361.032 1442.69C375.299 1452.56 391.566 1452.69 405.966 1443.09C429.566 1427.36 432.766 1398.02 413.032 1378.42C401.699 1366.96 385.432 1362.56 371.699 1367.09Z" fill="black"/>
<path d="M542.365 1367.09C528.365 1371.76 515.699 1385.89 512.765 1400.16C509.432 1415.76 517.032 1432.69 531.699 1442.69C545.965 1452.56 562.232 1452.69 576.632 1443.09C600.232 1427.36 603.432 1398.02 583.699 1378.42C572.365 1366.96 556.099 1362.56 542.365 1367.09Z" fill="black"/>
<path d="M713.032 1367.09C699.032 1371.76 686.366 1385.89 683.432 1400.16C677.699 1427.62 705.166 1455.09 732.632 1449.36C753.299 1445.09 769.299 1424.02 767.299 1404.16C765.832 1390.16 755.299 1375.76 741.966 1369.22C733.832 1365.36 721.299 1364.42 713.032 1367.09Z" fill="black"/>
<path d="M30.3655 1537.76C16.3655 1542.42 3.69879 1556.56 0.76546 1570.82C-4.96787 1598.29 22.4988 1625.76 49.9655 1620.02C70.6321 1615.76 86.6321 1594.69 84.6321 1574.82C83.1655 1560.82 72.6321 1546.42 59.2988 1539.89C51.1655 1536.02 38.6321 1535.09 30.3655 1537.76Z" fill="black"/>
<path d="M201.032 1537.76C187.032 1542.42 174.365 1556.56 171.432 1570.82C165.699 1598.29 193.165 1625.76 220.632 1620.02C241.299 1615.76 257.299 1594.69 255.299 1574.82C253.832 1560.82 243.299 1546.42 229.965 1539.89C221.832 1536.02 209.299 1535.09 201.032 1537.76Z" fill="black"/>
<path d="M371.699 1537.76C357.699 1542.42 345.032 1556.56 342.099 1570.82C336.366 1598.29 363.832 1625.76 391.299 1620.02C411.966 1615.76 427.966 1594.69 425.966 1574.82C424.499 1560.82 413.966 1546.42 400.632 1539.89C392.499 1536.02 379.966 1535.09 371.699 1537.76Z" fill="black"/>
<path d="M542.365 1537.76C528.365 1542.42 515.699 1556.56 512.765 1570.82C507.032 1598.29 534.499 1625.76 561.965 1620.02C582.632 1615.76 598.632 1594.69 596.632 1574.82C595.165 1560.82 584.632 1546.42 571.299 1539.89C563.165 1536.02 550.632 1535.09 542.365 1537.76Z" fill="black"/>
<path d="M713.032 1537.76C699.032 1542.42 686.366 1556.56 683.432 1570.82C677.699 1598.29 705.166 1625.76 732.632 1620.02C753.299 1615.76 769.299 1594.69 767.299 1574.82C765.832 1560.82 755.299 1546.42 741.966 1539.89C733.832 1536.02 721.299 1535.09 713.032 1537.76Z" fill="black"/>
</svg>
