<svg height="512" viewBox="0 0 512 512" width="512" xmlns="http://www.w3.org/2000/svg"><g id="_2_Resilience" data-name="2 Resilience"><path d="m50.21 275.19a19.19 19.19 0 0 1 0-38.38h411.58a19.19 19.19 0 0 1 0 38.38z" fill="#8bd5ef"/><path d="m246.47 157.59a11 11 0 0 0 19.06 0l25-43.22a11 11 0 0 0 -9.53-16.5h-5.77v-20.41a19.19 19.19 0 0 0 -38.38 0v20.41h-5.85a11 11 0 0 0 -9.52 16.5z" fill="#8bd5ef"/><path d="m256 50.42a19.19 19.19 0 0 0 19.19-19.19v-1a19.19 19.19 0 0 0 -38.38 0v1a19.19 19.19 0 0 0 19.19 19.19z" fill="#8bd5ef"/><path d="m265.53 356.33a11 11 0 0 0 -19.06 0l-24.95 43.22a11 11 0 0 0 9.52 16.5h5.77v20.41a19.19 19.19 0 0 0 38.38 0v-20.41h5.81a11 11 0 0 0 9.52-16.5z" fill="#8bd5ef"/><path d="m256 461.58a19.19 19.19 0 0 0 -19.19 19.19v1a19.19 19.19 0 0 0 38.38 0v-1a19.19 19.19 0 0 0 -19.19-19.19z" fill="#8bd5ef"/><g fill="#1d71a0"><path d="m461.77 376.89a25.08 25.08 0 0 1 -10.77-2.44c-32.16-15.21-100.26-40.74-195-40.74h-1.34c-94.1.29-161.73 25.63-193.66 40.74a25 25 0 0 1 -10.76 2.43 25.19 25.19 0 0 1 -10.78-48c35.72-16.88 111.19-45.27 215.09-45.54h1.45c104.59 0 180.57 28.56 216.55 45.58a25.18 25.18 0 0 1 -2.29 46.48 25.24 25.24 0 0 1 -8.49 1.49zm-205.77-55.18c97.08 0 167.06 26.25 200.13 41.9a13.19 13.19 0 0 0 11.28-23.85c-35.05-16.59-109.15-44.42-211.41-44.42h-1.43c-101.57.26-175.17 28-210 44.43a13.19 13.19 0 1 0 11.28 23.84c32.85-15.54 102.35-41.61 198.8-41.89z"/><path d="m256 228.66h-1.44c-103.91-.27-179.38-28.66-215.12-45.58a25.18 25.18 0 1 1 21.56-45.53c32 15.11 99.58 40.49 193.7 40.73h1.41c94.64 0 162.69-25.49 194.93-40.74a25.18 25.18 0 0 1 21.54 45.53c-36 17.03-111.97 45.59-216.58 45.59zm-205.78-81.54a13.19 13.19 0 0 0 -5.65 25.11c34.84 16.48 108.44 44.17 210 44.43h1.43c102.25 0 176.35-27.83 211.42-44.43a13.19 13.19 0 0 0 -11.28-23.84c-33.14 15.68-103.08 41.89-200.06 41.9h-1.44c-96.44-.29-165.94-26.36-198.79-41.9a13.25 13.25 0 0 0 -5.63-1.27z"/><path d="m50.21 281.19a25.19 25.19 0 0 1 0-50.38h411.58a25.19 25.19 0 0 1 0 50.38zm411.58-38.38h-411.58a13.19 13.19 0 0 0 0 26.38h411.58a13.19 13.19 0 0 0 0-26.38z"/><path d="m256 169.09a16.82 16.82 0 0 1 -14.72-8.5l-25-43.22a17 17 0 0 1 14.49-25.5v-14.41a25.19 25.19 0 0 1 50.38 0v14.41a17 17 0 0 1 14.49 25.5l-25 43.22a16.82 16.82 0 0 1 -14.64 8.5zm-25-65.22a5 5 0 0 0 -4.33 7.5l25 43.22a5 5 0 0 0 8.66 0l25-43.22a5 5 0 0 0 -4.33-7.5h-5.77a6 6 0 0 1 -6-6v-20.41a13.19 13.19 0 0 0 -26.38 0v20.41a6 6 0 0 1 -6 6z"/><path d="m256 56.42a25.22 25.22 0 0 1 -25.19-25.19v-1a25.19 25.19 0 1 1 50.38 0v1a25.22 25.22 0 0 1 -25.19 25.19zm0-39.42a13.21 13.21 0 0 0 -13.19 13.19v1a13.19 13.19 0 0 0 26.38 0v-1a13.21 13.21 0 0 0 -13.19-13.19z"/><path d="m228.85 392.84a6 6 0 0 1 -5.19-9l5.2-9a6 6 0 0 1 10.39 6l-5.2 9a6 6 0 0 1 -5.2 3z"/><path d="m256 461.64a25.21 25.21 0 0 1 -25.19-25.18v-14.46a17.06 17.06 0 0 1 -16.75-15.91 6 6 0 0 1 12-.79 5 5 0 0 0 5 4.7h5.77a6 6 0 0 1 6 6v20.42a13.19 13.19 0 0 0 26.37 0v-20.42a6 6 0 0 1 6-6h5.8a5 5 0 0 0 4.34-7.5l-25-43.2a5 5 0 0 0 -8.66 0l-1.5 2.6a6 6 0 0 1 -10.39-6l1.5-2.6a17 17 0 0 1 29.44 0l25 43.2a17 17 0 0 1 -14.5 25.5v14.42a25.2 25.2 0 0 1 -25.23 25.22z"/><path d="m256 507a25.22 25.22 0 0 1 -25.19-25.19v-1a25.19 25.19 0 0 1 50.38 0v1a25.22 25.22 0 0 1 -25.19 25.19zm0-39.42a13.21 13.21 0 0 0 -13.19 13.19v1a13.19 13.19 0 0 0 26.38 0v-1a13.21 13.21 0 0 0 -13.19-13.19z"/></g></g></svg>